<svg width="160" height="64" viewBox="0 0 160 64" fill="none" xmlns="http://www.w3.org/2000/svg">
  <rect width="160" height="64" rx="12" fill="#00853D" />
  <path
    d="M32.139 18.5L24.648 18.5V41H20V18.5H12.5V14.5H32.139V18.5Z"
    fill="white"
  />
  <path
    d="M62.829 41V14.5H67.477V35.0215H67.7197L79.7876 14.5H84.4355V41H79.7876V20.4785H79.5449L67.477 41H62.829Z"
    fill="white"
  />
  <path
    d="M109.624 14.5C119.159 14.5 123.843 19.835 123.843 27.75C123.843 35.665 119.159 41 109.624 41H96.5V14.5H109.624ZM109.382 18.6758H101.148V36.8242H109.382C116.088 36.8242 119.195 33.2188 119.195 27.75C119.195 22.2812 116.088 18.6758 109.382 18.6758Z"
    fill="white"
  />
  <path
    d="M136.081 45.125C135.155 45.125 134.42 44.9136 133.877 44.4907C133.346 44.0559 133.081 43.4811 133.081 42.7664C133.081 42.0398 133.346 41.465 133.877 41.0421C134.42 40.6063 135.155 40.3884 136.081 40.3884C137.007 40.3884 137.735 40.6063 138.266 41.0421C138.809 41.465 139.081 42.0398 139.081 42.7664C139.081 43.4811 138.809 44.0559 138.266 44.4907C137.735 44.9136 137.007 45.125 136.081 45.125Z"
    fill="#7BD889"
  />
</svg>
